<?xml version="1.0" encoding="UTF-8"?>
<svg xmlns="http://www.w3.org/2000/svg" xmlns:xlink="http://www.w3.org/1999/xlink" width="447px" height="312px" viewBox="0 0 446 312" version="1.1">
<g id="surface1">
<path style=" stroke:none;fill-rule:nonzero;fill:rgb(0%,68.627451%,93.72549%);fill-opacity:1;" d="M 2.785156 263.851562 C 85.941406 175.972656 169.09375 88.140625 252.25 0.21875 C 253.503906 1.566406 254.757812 2.914062 256.011719 4.265625 C 209.417969 53.761719 162.777344 103.214844 116.136719 152.667969 C 80.226562 190.675781 44.410156 228.773438 8.453125 266.78125 C 5.714844 266.734375 3.019531 266.78125 0.277344 266.734375 C 0.976562 265.617188 1.902344 264.78125 2.785156 263.851562 Z M 2.785156 263.851562 "/>
<path style=" stroke:none;fill-rule:nonzero;fill:rgb(0%,68.627451%,93.72549%);fill-opacity:1;" d="M 259.820312 8.359375 C 261.261719 9.523438 262.375 11.058594 263.722656 12.3125 C 183.730469 97.167969 103.734375 181.972656 23.738281 266.78125 C 20.902344 266.78125 18.117188 266.78125 15.28125 266.78125 C 61.738281 217.75 108.144531 168.621094 154.648438 119.542969 C 189.675781 82.464844 224.792969 45.4375 259.820312 8.359375 Z M 259.820312 8.359375 "/>
<path style=" stroke:none;fill-rule:nonzero;fill:rgb(0%,68.627451%,93.72549%);fill-opacity:1;" d="M 30.519531 266.78125 C 109.585938 183.324219 188.511719 99.820312 267.578125 16.359375 C 268.832031 17.664062 270.042969 19.011719 271.34375 20.269531 C 270.554688 21.382812 269.53125 22.359375 268.554688 23.382812 C 192.042969 104.46875 115.578125 185.648438 39.019531 266.734375 C 36.1875 266.828125 33.355469 266.78125 30.519531 266.78125 Z M 30.519531 266.78125 "/>
<path style=" stroke:none;fill-rule:nonzero;fill:rgb(0%,68.627451%,93.72549%);fill-opacity:1;" d="M 45.898438 266.78125 C 122.269531 185.976562 198.734375 105.308594 275.152344 24.453125 C 276.359375 25.664062 277.613281 26.828125 278.683594 28.128906 C 278.683594 28.269531 278.683594 28.59375 278.683594 28.78125 C 204.167969 107.867188 129.5625 186.90625 55.046875 265.945312 C 54.628906 266.363281 54.210938 266.875 53.515625 266.734375 C 50.960938 266.828125 48.40625 266.78125 45.898438 266.78125 Z M 45.898438 266.78125 "/>
<path style=" stroke:none;fill-rule:nonzero;fill:rgb(0%,68.627451%,93.72549%);fill-opacity:1;" d="M 277.847656 37.757812 C 279.566406 36.039062 281.144531 34.222656 282.910156 32.550781 C 284.117188 33.851562 285.371094 35.15625 286.625 36.410156 C 284.582031 38.96875 282.214844 41.203125 280.03125 43.574219 C 213.042969 114.613281 146.054688 185.554688 79.160156 256.59375 C 76.417969 259.570312 73.492188 262.410156 70.84375 265.480469 C 70.238281 265.992188 69.773438 266.921875 68.84375 266.78125 C 66.335938 266.828125 63.78125 266.78125 61.226562 266.78125 C 64.523438 262.875 68.289062 259.433594 71.679688 255.617188 C 140.386719 183 209.09375 110.378906 277.847656 37.757812 Z M 277.847656 37.757812 "/>
<path style=" stroke:none;fill-rule:nonzero;fill:rgb(0%,68.627451%,93.72549%);fill-opacity:1;" d="M 212.019531 123.496094 C 238.128906 95.863281 264.328125 68.277344 290.4375 40.597656 C 291.738281 41.945312 293.039062 43.296875 294.335938 44.644531 C 224.375 118.613281 154.601562 192.8125 84.6875 266.828125 C 81.898438 266.78125 79.160156 266.828125 76.371094 266.828125 C 121.570312 219.050781 166.773438 171.226562 212.019531 123.496094 Z M 212.019531 123.496094 "/>
<path style=" stroke:none;fill-rule:nonzero;fill:rgb(0%,68.627451%,93.72549%);fill-opacity:1;" d="M 297.359375 49.390625 C 298.054688 48.320312 298.890625 49.527344 299.449219 50.085938 C 325.648438 77.8125 351.847656 105.496094 378.097656 133.175781 C 384.320312 139.640625 390.3125 146.292969 396.679688 152.621094 C 394.449219 151.734375 392.542969 150.246094 390.40625 149.175781 C 380.511719 143.734375 369.734375 140.011719 358.722656 137.59375 C 356.261719 137.222656 354.3125 135.59375 352.128906 134.476562 C 349.804688 133.082031 347.34375 131.964844 345.113281 130.382812 C 351.199219 128.570312 357.378906 127.265625 363.417969 125.265625 C 364.113281 124.988281 365.738281 124.566406 364.949219 123.542969 C 362.535156 122.054688 359.652344 121.589844 356.960938 120.847656 C 344.554688 117.960938 331.917969 116.242188 319.191406 115.960938 C 315.9375 115.636719 312.640625 115.636719 309.390625 115.960938 C 293.6875 116.242188 278.03125 118.800781 262.980469 123.3125 C 247.417969 128.054688 232.878906 135.964844 219.917969 145.828125 C 213.738281 150.621094 207.839844 155.738281 202.730469 161.644531 C 197.105469 167.878906 192.042969 174.855469 188.929688 182.71875 C 181.730469 199.652344 180.199219 219.097656 185.402344 236.824219 C 188.558594 247.617188 193.996094 257.710938 200.730469 266.6875 C 164.355469 266.78125 128.027344 266.734375 91.65625 266.734375 C 160.222656 194.347656 228.789062 121.871094 297.359375 49.390625 Z M 297.359375 49.390625 "/>
<path style=" stroke:none;fill-rule:nonzero;fill:rgb(0%,68.627451%,93.72549%);fill-opacity:1;" d="M 288.625 122.566406 C 297.542969 120.984375 306.695312 120.289062 315.753906 120.289062 C 310.875 122.753906 306.042969 125.3125 301.167969 127.777344 C 300.285156 128.242188 299.261719 128.429688 298.285156 128.570312 C 291.039062 129.3125 283.886719 130.707031 276.824219 132.476562 C 280.679688 129.082031 284.628906 125.777344 288.625 122.566406 Z M 288.625 122.566406 "/>
<path style=" stroke:none;fill-rule:nonzero;fill:rgb(0%,68.627451%,93.72549%);fill-opacity:1;" d="M 323.28125 121.03125 C 323.882812 120.753906 324.488281 120.335938 325.183594 120.425781 C 334.429688 120.890625 343.625 122.007812 352.640625 123.917969 C 347.34375 125.359375 342.046875 126.660156 336.75 128.101562 C 335.21875 128.476562 333.59375 128.242188 332.058594 128.054688 C 329.921875 127.730469 327.785156 127.871094 325.648438 127.683594 C 320.722656 127.125 315.753906 127.589844 310.828125 127.359375 C 315.011719 125.3125 319.144531 123.171875 323.28125 121.03125 Z M 323.28125 121.03125 "/>
<path style=" stroke:none;fill-rule:nonzero;fill:rgb(0%,68.627451%,93.72549%);fill-opacity:1;" d="M 255.316406 131.546875 C 263.167969 128.476562 271.296875 126.011719 279.566406 124.335938 C 274.6875 128.148438 270.089844 132.242188 265.164062 135.964844 C 257.871094 138.617188 250.671875 141.59375 243.886719 145.316406 C 246.722656 141.316406 249.601562 137.359375 252.433594 133.359375 C 253.039062 132.289062 254.292969 131.964844 255.316406 131.546875 Z M 255.316406 131.546875 "/>
<path style=" stroke:none;fill-rule:nonzero;fill:rgb(0%,68.627451%,93.72549%);fill-opacity:1;" d="M 316.820312 131.546875 C 323.789062 131.359375 330.804688 131.640625 337.773438 132.289062 C 338.65625 132.382812 339.585938 132.429688 340.375 132.847656 C 346.785156 136.382812 353.242188 139.917969 359.792969 143.316406 C 351.757812 141.734375 343.625 140.199219 335.449219 139.78125 C 333.871094 139.59375 332.246094 139.59375 330.664062 139.316406 C 325.972656 136.757812 321.375 134.199219 316.820312 131.546875 Z M 316.820312 131.546875 "/>
<path style=" stroke:none;fill-rule:nonzero;fill:rgb(0%,68.627451%,93.72549%);fill-opacity:1;" d="M 284.953125 135.359375 C 292.992188 133.5 301.214844 132.335938 309.4375 131.917969 C 313.429688 134.011719 317.148438 136.570312 321.097656 138.757812 C 321.1875 138.894531 321.421875 139.222656 321.515625 139.40625 C 314.824219 139.316406 308.136719 139.871094 301.492188 140.710938 C 300.75 140.851562 300.097656 140.429688 299.449219 140.246094 C 294.617188 138.617188 289.785156 136.988281 284.953125 135.359375 Z M 284.953125 135.359375 "/>
<path style=" stroke:none;fill-rule:nonzero;fill:rgb(0%,68.627451%,93.72549%);fill-opacity:1;" d="M 218.152344 153.550781 C 226.09375 146.851562 234.828125 141.082031 244.167969 136.523438 C 241.238281 141.082031 238.171875 145.550781 235.199219 150.0625 C 234.316406 151.503906 232.644531 152.15625 231.390625 153.179688 C 225.632812 157.363281 220.148438 161.96875 215.316406 167.179688 C 216.199219 162.621094 217.035156 158.0625 218.152344 153.550781 Z M 218.152344 153.550781 "/>
<path style=" stroke:none;fill-rule:nonzero;fill:rgb(0%,68.627451%,93.72549%);fill-opacity:1;" d="M 253.644531 145.6875 C 261.214844 142.058594 269.207031 139.269531 277.382812 137.175781 C 282.398438 138.664062 287.371094 140.429688 292.339844 142.058594 C 285.558594 143.640625 278.777344 145.269531 272.226562 147.640625 C 271.34375 147.921875 270.507812 148.386719 269.578125 148.152344 C 264.234375 147.316406 258.9375 146.480469 253.644531 145.6875 Z M 253.644531 145.6875 "/>
<path style=" stroke:none;fill-rule:nonzero;fill:rgb(0%,68.627451%,93.72549%);fill-opacity:1;" d="M 246.117188 149.410156 C 246.722656 149.085938 247.417969 148.617188 248.117188 148.851562 C 252.945312 149.640625 257.824219 150.480469 262.703125 151.179688 C 256.570312 153.921875 250.578125 156.992188 244.910156 160.667969 C 244.074219 161.320312 243.003906 161.414062 241.984375 161.550781 C 236.453125 162.15625 230.925781 162.949219 225.351562 163.550781 C 231.761719 158.109375 238.730469 153.363281 246.117188 149.410156 Z M 246.117188 149.410156 "/>
<path style=" stroke:none;fill-rule:nonzero;fill:rgb(0%,68.627451%,93.72549%);fill-opacity:1;" d="M 193.625 186.113281 C 197.804688 176.207031 204.214844 167.320312 211.695312 159.597656 C 210.671875 164.574219 209.558594 169.554688 208.535156 174.53125 C 208.351562 175.789062 207.421875 176.71875 206.722656 177.742188 C 202.171875 184.394531 198.410156 191.605469 195.992188 199.328125 C 195.25 196.675781 194.972656 193.929688 194.460938 191.230469 C 194.179688 189.511719 193.625 187.835938 193.625 186.113281 Z M 193.625 186.113281 "/>
<path style=" stroke:none;fill-rule:nonzero;fill:rgb(0%,68.627451%,93.72549%);fill-opacity:1;" d="M 220.613281 168.484375 C 225.910156 167.785156 231.25 167.132812 236.546875 166.484375 C 231.578125 170.390625 226.839844 174.578125 222.703125 179.371094 C 221.730469 180.4375 220.894531 181.742188 219.546875 182.347656 C 214.25 184.953125 209 187.695312 203.75 190.394531 C 207.558594 183 212.53125 176.253906 218.289062 170.296875 C 218.988281 169.601562 219.546875 168.578125 220.613281 168.484375 Z M 220.613281 168.484375 "/>
<path style=" stroke:none;fill-rule:nonzero;fill:rgb(0%,68.627451%,93.72549%);fill-opacity:1;" d="M 201.011719 196.304688 C 205.75 193.929688 210.441406 191.464844 215.226562 189.140625 C 211.089844 195.234375 207.886719 201.933594 205.75 208.910156 C 202.683594 213.5625 199.152344 217.886719 195.851562 222.355469 C 195.714844 213.46875 197.617188 204.535156 201.011719 196.304688 Z M 201.011719 196.304688 "/>
<path style=" stroke:none;fill-rule:nonzero;fill:rgb(0%,68.627451%,93.72549%);fill-opacity:1;" d="M 188.050781 222.402344 C 187.210938 212.863281 187.910156 203.140625 190.652344 193.976562 C 191.53125 197.558594 191.859375 201.234375 192.414062 204.816406 C 192.601562 206.863281 193.25 208.957031 192.878906 211.003906 C 191.90625 217.75 191.8125 224.773438 193.671875 231.378906 C 194.132812 231.195312 194.507812 230.914062 194.832031 230.542969 C 197.757812 226.726562 200.683594 222.867188 203.703125 219.097656 C 203.238281 226.867188 202.867188 234.777344 204.867188 242.40625 C 206.445312 248.824219 209.882812 254.640625 214.0625 259.757812 C 219.546875 266.734375 227.117188 271.761719 235.015625 275.621094 C 248.488281 282.179688 263.351562 285.25 278.21875 286.414062 C 288.761719 287.34375 299.355469 286.832031 309.898438 285.949219 C 324.8125 284.832031 339.769531 282.550781 353.984375 277.902344 C 361.929688 275.339844 369.6875 272.226562 377.074219 268.316406 C 380 266.96875 382.601562 264.921875 385.574219 263.757812 C 401 263.710938 416.421875 263.757812 431.796875 263.757812 C 429.753906 266.875 427.011719 269.433594 424.550781 272.179688 C 411.171875 285.53125 394.402344 295.066406 376.75 301.578125 C 351.800781 310.746094 324.582031 313.582031 298.238281 310.324219 C 279.890625 308.1875 261.910156 303.113281 245.375 294.878906 C 230.324219 287.34375 216.480469 277.015625 205.933594 263.851562 C 196.363281 251.988281 189.769531 237.566406 188.050781 222.402344 Z M 404.808594 268.734375 C 403.460938 269.15625 402.996094 270.96875 403.832031 272.039062 C 404.808594 273.945312 408.105469 272.875 408.058594 270.828125 C 408.105469 269.292969 406.246094 268.039062 404.808594 268.734375 Z M 404.808594 268.734375 "/>
<path style=" stroke:none;fill-rule:nonzero;fill:rgb(0%,68.627451%,93.72549%);fill-opacity:1;" d="M 209.09375 238.03125 C 209.417969 237.984375 210.066406 237.847656 210.394531 237.753906 C 211.648438 237.890625 212.902344 237.9375 214.203125 237.890625 C 267.160156 237.847656 320.121094 237.9375 373.078125 237.847656 C 397.234375 237.890625 421.4375 237.847656 445.59375 237.890625 C 445.503906 240.453125 444.0625 242.636719 443.273438 245.011719 C 365.925781 245.101562 288.578125 245.058594 211.183594 245.058594 C 210.253906 242.777344 209.558594 240.453125 209.09375 238.03125 Z M 209.09375 238.03125 "/>
<path style=" stroke:none;fill-rule:nonzero;fill:rgb(0%,68.627451%,93.72549%);fill-opacity:1;" d="M 213.460938 250.082031 C 260.9375 250.082031 308.367188 250.082031 355.84375 250.082031 C 384.179688 250.128906 412.472656 249.988281 440.8125 250.128906 C 439.183594 253.152344 437.464844 256.175781 435.46875 258.964844 C 363.554688 258.921875 291.691406 258.964844 219.777344 258.921875 C 217.363281 256.175781 215.132812 253.292969 213.460938 250.082031 Z M 213.460938 250.082031 "/>
<path style=" stroke:none;fill-rule:nonzero;fill:rgb(0%,68.627451%,93.72549%);fill-opacity:1;" d="M 224.144531 263.710938 C 274.78125 263.710938 325.414062 263.710938 376.050781 263.710938 C 364.113281 269.386719 351.429688 273.433594 338.515625 276.320312 C 313.988281 281.621094 288.4375 283.390625 263.632812 278.878906 C 254.480469 277.203125 245.421875 274.921875 236.871094 271.25 C 232.367188 269.246094 227.90625 266.96875 224.144531 263.710938 Z M 224.144531 263.710938 "/>
<path style=" stroke:none;fill-rule:nonzero;fill:rgb(82.352941%,67.843137%,41.568627%);fill-opacity:1;" d="M 329.410156 151.734375 L 330.386719 161.691406 L 331.269531 164.34375 L 327.042969 164.34375 L 328.109375 161.691406 Z M 329.410156 151.734375 "/>
<path style=" stroke:none;fill-rule:nonzero;fill:rgb(82.352941%,67.843137%,41.568627%);fill-opacity:1;" d="M 357.238281 174.34375 L 360.210938 172.855469 L 360.210938 177.972656 L 351.847656 173.878906 Z M 357.238281 174.34375 "/>
<path style=" stroke:none;fill-rule:nonzero;fill:rgb(81.960784%,67.45098%,40.392157%);fill-opacity:1;" d="M 333.175781 162.015625 L 336.566406 163.226562 L 339.910156 162.015625 C 339.910156 162.015625 339.957031 163.550781 339.957031 164.34375 C 337.679688 164.4375 335.449219 164.390625 333.21875 164.390625 C 333.175781 163.597656 333.175781 162.015625 333.175781 162.015625 Z M 333.175781 162.015625 "/>
<path style=" stroke:none;fill-rule:nonzero;fill:rgb(81.960784%,67.058824%,40.392157%);fill-opacity:1;" d="M 318.496094 162.015625 C 319.46875 162.4375 321.980469 163.179688 321.980469 163.179688 L 325.371094 162.015625 L 325.460938 164.34375 C 325.460938 164.34375 320.816406 164.296875 318.496094 164.390625 C 318.496094 163.597656 318.496094 162.808594 318.496094 162.015625 Z M 318.496094 162.015625 "/>
<path style=" stroke:none;fill-rule:nonzero;fill:rgb(82.352941%,68.235294%,42.745098%);fill-opacity:1;" d="M 317.566406 165.925781 C 325.324219 165.878906 333.035156 165.925781 340.792969 165.878906 C 340.792969 167.226562 340.792969 168.578125 340.792969 169.972656 C 346.738281 173.089844 352.824219 176.019531 358.769531 179.277344 C 339.074219 179.324219 319.421875 179.324219 299.726562 179.277344 C 305.582031 176.019531 311.621094 173.089844 317.566406 170.019531 C 317.566406 168.667969 317.566406 167.273438 317.566406 165.925781 Z M 317.566406 165.925781 "/>
<path style=" stroke:none;fill-rule:nonzero;fill:rgb(82.352941%,68.235294%,42.745098%);fill-opacity:1;" d="M 304.324219 184.765625 C 306.230469 183.835938 308.367188 184.253906 310.363281 184.253906 C 320.121094 184.300781 329.875 183.976562 339.632812 184.300781 C 342.742188 184.023438 345.808594 184.207031 348.921875 184.160156 C 350.640625 184.207031 352.5 183.882812 354.125 184.71875 C 360.351562 187.558594 366.527344 190.488281 372.753906 193.371094 C 348.875 193.558594 324.953125 193.417969 301.074219 193.464844 C 296.011719 193.417969 290.898438 193.558594 285.835938 193.371094 C 291.96875 190.488281 298.148438 187.648438 304.324219 184.765625 Z M 304.324219 184.765625 "/>
<path style=" stroke:none;fill-rule:nonzero;fill:rgb(82.352941%,68.235294%,42.745098%);fill-opacity:1;" d="M 318.496094 198.582031 C 325.601562 198.535156 332.710938 198.582031 339.816406 198.535156 C 339.910156 201.328125 339.863281 204.164062 339.863281 206.957031 C 332.757812 207.234375 325.554688 207.46875 318.449219 206.863281 C 318.542969 204.117188 318.496094 201.375 318.496094 198.582031 Z M 318.496094 198.582031 "/>
<path style=" stroke:none;fill-rule:nonzero;fill:rgb(82.352941%,68.235294%,42.745098%);fill-opacity:1;" d="M 250.160156 212.863281 L 292.710938 212.910156 L 283.421875 218.867188 L 250.253906 218.867188 Z M 250.160156 212.863281 "/>
<path style=" stroke:none;fill-rule:nonzero;fill:rgb(82.352941%,68.235294%,42.745098%);fill-opacity:1;" d="M 295.5 212.863281 L 362.8125 212.910156 C 362.8125 212.910156 370.105469 217.980469 373.777344 220.449219 C 345.53125 220.585938 284.722656 220.402344 284.722656 220.402344 Z M 295.5 212.863281 "/>
<path style=" stroke:none;fill-rule:nonzero;fill:rgb(82.352941%,68.235294%,42.745098%);fill-opacity:1;" d="M 365.972656 213.003906 C 365.972656 213.003906 394.167969 212.957031 408.246094 212.910156 C 408.246094 214.910156 408.246094 218.867188 408.246094 218.867188 L 375.308594 218.867188 Z M 365.972656 213.003906 "/>
<path style=" stroke:none;fill-rule:nonzero;fill:rgb(82.352941%,67.843137%,41.960784%);fill-opacity:1;" d="M 298.332031 177.972656 L 298.519531 172.671875 L 301.214844 174.34375 L 306.648438 173.878906 Z M 298.332031 177.972656 "/>
<path style=" stroke:none;fill-rule:nonzero;fill:rgb(82.352941%,68.235294%,42.745098%);fill-opacity:1;" d="M 305.8125 180.765625 C 306.460938 180.394531 307.253906 180.53125 307.996094 180.484375 C 322.398438 180.53125 336.796875 180.484375 351.199219 180.484375 C 351.894531 180.484375 353.101562 180.625 353.195312 181.554688 C 353.476562 182.394531 352.5 183.136719 351.710938 183 C 337.773438 183.042969 323.835938 183 309.898438 183.042969 C 308.644531 183.042969 307.390625 183.136719 306.136719 182.953125 C 305.160156 182.765625 304.929688 181.183594 305.8125 180.765625 Z M 306.230469 181.324219 C 306.230469 181.554688 306.230469 182.019531 306.230469 182.207031 C 321.515625 182.253906 336.796875 182.207031 352.128906 182.207031 C 352.128906 181.972656 352.128906 181.507812 352.128906 181.277344 C 336.84375 181.277344 321.515625 181.230469 306.230469 181.324219 Z M 306.230469 181.324219 "/>
<path style=" stroke:none;fill-rule:nonzero;fill:rgb(82.352941%,67.45098%,41.568627%);fill-opacity:1;" d="M 284.953125 187.046875 L 288.019531 188.671875 L 293.269531 188.117188 C 293.269531 188.117188 287.695312 190.765625 284.953125 192.164062 C 284.90625 190.441406 284.953125 187.046875 284.953125 187.046875 Z M 284.953125 187.046875 "/>
<path style=" stroke:none;fill-rule:nonzero;fill:rgb(81.960784%,67.843137%,41.568627%);fill-opacity:1;" d="M 370.292969 188.671875 L 373.683594 187.046875 C 373.683594 187.046875 373.683594 190.441406 373.683594 192.164062 C 370.847656 190.8125 365.273438 188.070312 365.273438 188.070312 Z M 370.292969 188.671875 "/>
<path style=" stroke:none;fill-rule:nonzero;fill:rgb(82.352941%,68.235294%,42.352941%);fill-opacity:1;" d="M 286.488281 194.90625 L 371.777344 194.90625 L 371.359375 195.652344 L 364.902344 197.605469 L 364.855469 205.558594 L 368.621094 205.605469 L 368.804688 207.003906 L 342.046875 207.003906 L 342.09375 198.953125 L 347.0625 198.582031 L 354.171875 198.582031 L 354.265625 205.46875 L 361.558594 205.421875 L 361.652344 198.164062 L 361.046875 197.1875 L 334.519531 197.09375 L 301.539062 197.09375 L 297.3125 197.324219 L 297.078125 205.558594 L 304.09375 205.605469 C 304.09375 205.605469 304.324219 200.953125 304.417969 198.628906 C 307.625 198.628906 314.082031 198.628906 314.082031 198.628906 L 316.449219 199.328125 L 316.589844 207.003906 L 290.855469 207.050781 L 289.738281 205.652344 L 293.453125 205.652344 L 293.78125 197.792969 L 287.972656 196.023438 Z M 286.488281 194.90625 "/>
<path style=" stroke:none;fill-rule:nonzero;fill:rgb(81.960784%,67.45098%,41.568627%);fill-opacity:1;" d="M 264.933594 209.097656 L 315.058594 209.097656 L 311.757812 211.144531 C 311.757812 211.144531 280.539062 211.144531 264.976562 211.144531 C 264.976562 210.445312 264.933594 209.097656 264.933594 209.097656 Z M 264.933594 209.097656 "/>
<path style=" stroke:none;fill-rule:nonzero;fill:rgb(81.960784%,67.45098%,41.568627%);fill-opacity:1;" d="M 317.890625 209.097656 C 325.136719 209.050781 339.632812 209.050781 339.632812 209.050781 L 342.417969 211.097656 L 315.984375 211.097656 C 315.984375 211.097656 317.242188 209.746094 317.890625 209.097656 Z M 317.890625 209.097656 "/>
<path style=" stroke:none;fill-rule:nonzero;fill:rgb(81.960784%,67.45098%,41.568627%);fill-opacity:1;" d="M 343.394531 209.097656 L 393.007812 209.097656 L 393.101562 211.050781 L 346.554688 211.144531 Z M 343.394531 209.097656 "/>
<path style=" stroke:none;fill-rule:nonzero;fill:rgb(92.941176%,19.607843%,21.568627%);fill-opacity:1;" d="M 74.1875 280.972656 C 78.601562 278.085938 84.128906 277.433594 89.238281 278.414062 C 93.511719 279.296875 97.925781 281.484375 99.925781 285.578125 C 97.460938 285.578125 95 285.625 92.492188 285.578125 C 91.886719 285.625 91.515625 285.066406 91.050781 284.832031 C 88.542969 283.019531 85.289062 282.832031 82.316406 283.25 C 79.714844 283.761719 77.066406 285.203125 76.046875 287.808594 C 75.347656 289.671875 76.371094 291.71875 77.902344 292.832031 C 81.386719 295.625 86.542969 295.996094 90.492188 293.902344 C 90.820312 293.71875 91.050781 293.4375 91.097656 293.019531 C 87.660156 293.019531 84.222656 293.066406 80.785156 293.019531 C 80.785156 291.390625 80.785156 289.808594 80.738281 288.226562 C 87.472656 288.042969 94.210938 288.179688 100.945312 288.136719 C 101.085938 290.648438 100.386719 293.253906 98.578125 295.066406 C 95.277344 298.648438 90.261719 300.183594 85.523438 300.230469 C 80.460938 300.324219 75.117188 298.835938 71.539062 295.113281 C 69.402344 292.972656 68.519531 289.578125 69.496094 286.691406 C 70.191406 284.226562 72.097656 282.320312 74.1875 280.972656 Z M 74.1875 280.972656 "/>
<path style=" stroke:none;fill-rule:nonzero;fill:rgb(92.941176%,19.607843%,21.568627%);fill-opacity:1;" d="M 12.726562 278.367188 L 17.699219 278.320312 C 17.699219 278.320312 26.292969 292.601562 30.566406 299.71875 C 28.058594 299.71875 25.503906 299.71875 22.996094 299.71875 C 21.972656 297.996094 19.929688 294.648438 19.929688 294.648438 L 10.824219 294.695312 C 10.824219 294.695312 8.6875 298.089844 7.523438 299.765625 C 5.109375 299.765625 2.738281 299.765625 0.371094 299.765625 C 0.511719 299.253906 0.695312 298.742188 0.929688 298.277344 C 4.878906 291.671875 12.726562 278.367188 12.726562 278.367188 Z M 13.472656 289.578125 C 14.679688 289.578125 15.886719 289.578125 17.09375 289.578125 C 16.445312 288.414062 15.886719 287.203125 15.328125 285.996094 C 14.632812 287.15625 14.027344 288.367188 13.472656 289.578125 Z M 13.472656 289.578125 "/>
<path style=" stroke:none;fill-rule:nonzero;fill:rgb(92.941176%,19.607843%,21.568627%);fill-opacity:1;" d="M 31.308594 278.367188 C 33.679688 278.457031 38.277344 278.367188 38.277344 278.367188 C 38.277344 278.367188 45.433594 287.15625 49.007812 291.4375 C 49.101562 287.113281 49.007812 282.738281 49.054688 278.367188 C 51.332031 278.367188 53.609375 278.367188 55.882812 278.367188 C 55.882812 285.484375 55.882812 292.648438 55.882812 299.765625 C 53.515625 299.765625 51.191406 299.765625 48.824219 299.765625 C 45.339844 295.484375 41.902344 291.160156 38.277344 286.972656 C 38.183594 291.160156 38.277344 299.765625 38.277344 299.765625 L 31.355469 299.765625 C 31.355469 299.8125 31.355469 285.53125 31.308594 278.367188 Z M 31.308594 278.367188 "/>
<path style=" stroke:none;fill-rule:nonzero;fill:rgb(92.941176%,19.607843%,21.568627%);fill-opacity:1;" d="M 102.804688 278.367188 C 105.035156 278.367188 107.265625 278.367188 109.539062 278.367188 C 109.539062 285.484375 109.539062 292.648438 109.539062 299.765625 C 107.308594 299.765625 105.035156 299.765625 102.804688 299.765625 C 102.804688 292.648438 102.851562 285.484375 102.804688 278.367188 Z M 102.804688 278.367188 "/>
<path style=" stroke:none;fill-rule:nonzero;fill:rgb(92.941176%,19.607843%,21.568627%);fill-opacity:1;" d="M 123.289062 278.367188 C 124.964844 278.414062 128.308594 278.320312 128.308594 278.320312 C 128.308594 278.320312 136.902344 292.601562 141.128906 299.71875 C 138.621094 299.71875 136.113281 299.71875 133.601562 299.71875 C 132.488281 298.089844 131.652344 296.277344 130.492188 294.695312 C 127.425781 294.554688 124.40625 294.695312 121.339844 294.648438 C 120.222656 296.324219 119.25 298.089844 118.132812 299.765625 C 115.625 299.71875 113.117188 299.765625 110.65625 299.765625 C 114.929688 292.695312 119.0625 285.484375 123.289062 278.367188 Z M 124.082031 289.578125 C 125.289062 289.578125 126.496094 289.578125 127.703125 289.578125 C 127.101562 288.367188 126.496094 287.15625 125.9375 285.949219 C 125.289062 287.15625 124.683594 288.367188 124.082031 289.578125 Z M 124.082031 289.578125 "/>
<path style=" stroke:none;fill-rule:nonzero;fill:rgb(92.941176%,19.607843%,21.568627%);fill-opacity:1;" d="M 141.917969 278.367188 C 144.289062 278.414062 148.933594 278.367188 148.933594 278.367188 C 148.933594 278.367188 156.042969 287.15625 159.664062 291.34375 C 159.710938 287.019531 159.664062 282.691406 159.664062 278.367188 C 161.941406 278.367188 164.21875 278.367188 166.492188 278.367188 C 166.492188 285.484375 166.492188 292.648438 166.492188 299.765625 C 164.402344 299.765625 159.570312 299.765625 159.570312 299.765625 C 159.570312 299.765625 152.1875 290.785156 148.886719 286.785156 C 148.792969 291.113281 148.886719 295.4375 148.839844 299.765625 C 146.519531 299.765625 144.242188 299.765625 141.917969 299.765625 C 141.917969 292.648438 141.917969 285.484375 141.917969 278.367188 Z M 141.917969 278.367188 "/>
<path style=" stroke:none;fill-rule:nonzero;fill:rgb(92.941176%,19.607843%,21.568627%);fill-opacity:1;" d="M 173.554688 281.34375 C 178.015625 278.179688 183.820312 277.390625 189.117188 278.414062 C 193.390625 279.296875 197.804688 281.484375 199.800781 285.578125 C 197.339844 285.578125 194.878906 285.625 192.367188 285.578125 C 191.765625 285.578125 191.394531 285.066406 190.929688 284.832031 C 188.421875 282.972656 185.074219 282.832031 182.054688 283.296875 C 179.453125 283.855469 176.761719 285.390625 175.878906 288.089844 C 175.226562 290.460938 176.992188 292.554688 178.898438 293.671875 C 181.917969 295.390625 185.773438 295.8125 189.070312 294.554688 C 189.8125 294.230469 190.789062 293.996094 191.066406 293.113281 C 187.585938 293.066406 184.101562 293.113281 180.664062 293.066406 C 180.664062 291.4375 180.664062 289.808594 180.664062 288.179688 C 187.398438 288.136719 194.089844 288.179688 200.777344 288.136719 C 200.871094 290.414062 200.359375 292.832031 198.828125 294.601562 C 195.667969 298.371094 190.652344 300.089844 185.820312 300.230469 C 180.707031 300.417969 175.273438 299.019531 171.605469 295.347656 C 169.558594 293.390625 168.539062 290.367188 169.140625 287.578125 C 169.605469 284.925781 171.417969 282.785156 173.554688 281.34375 Z M 173.554688 281.34375 "/>
</g>
</svg>
